<svg width="160" height="91" viewBox="0 0 160 91" fill="none" xmlns="http://www.w3.org/2000/svg">
<path d="M1.71 70.752H9.99V73.272H4.32V76.278H9.234V78.798H4.32V84H1.71V70.752ZM12.503 70.752H21.539V73.272H15.113V76.098H20.801V78.618H15.113V81.48H21.791V84H12.503V70.752ZM36.3533 84.54L27.0833 76.17L27.1373 84H24.4913V70.23H24.5993L33.8513 78.726L33.7973 70.752H36.4253V84.54H36.3533ZM51.699 84.54L42.429 76.17L42.483 84H39.837V70.23H39.945L49.197 78.726L49.143 70.752H51.771V84.54H51.699ZM55.1827 70.752H64.2187V73.272H57.7927V76.098H63.4807V78.618H57.7927V81.48H64.4707V84H55.1827V70.752ZM70.6089 79.878L65.7309 70.752H68.9529L71.9949 76.872L74.9649 70.752H78.1869L73.2189 79.878V84H70.6089V79.878ZM96.7607 82.668C96.6047 82.836 96.3587 83.01 96.0227 83.19C95.6867 83.358 95.2967 83.514 94.8527 83.658C94.4207 83.802 93.9767 83.916 93.5207 84C93.0647 84.096 92.6327 84.144 92.2247 84.144C90.7967 84.144 89.5547 83.868 88.4987 83.316C87.4427 82.764 86.6267 82.008 86.0507 81.048C85.4867 80.088 85.2047 78.99 85.2047 77.754C85.2047 76.542 85.3847 75.492 85.7447 74.604C86.1167 73.704 86.6147 72.96 87.2387 72.372C87.8747 71.772 88.6007 71.328 89.4167 71.04C90.2447 70.752 91.1087 70.608 92.0087 70.608C92.8607 70.608 93.6407 70.704 94.3487 70.896C95.0567 71.076 95.6567 71.304 96.1487 71.58L95.3027 74.01C95.0867 73.89 94.7987 73.77 94.4387 73.65C94.0787 73.53 93.7127 73.434 93.3407 73.362C92.9687 73.278 92.6387 73.236 92.3507 73.236C90.9227 73.236 89.8247 73.596 89.0567 74.316C88.2887 75.024 87.9047 76.092 87.9047 77.52C87.9047 78.348 88.0907 79.062 88.4627 79.662C88.8347 80.262 89.3507 80.724 90.0107 81.048C90.6827 81.372 91.4447 81.534 92.2967 81.534C92.6687 81.534 93.0107 81.51 93.3227 81.462C93.6347 81.402 93.8987 81.312 94.1147 81.192V79.59H91.8287V77.07H96.7607V82.668ZM103.74 70.752C105.408 70.752 106.686 71.16 107.574 71.976C108.474 72.78 108.924 73.86 108.924 75.216C108.924 75.972 108.762 76.716 108.438 77.448C108.126 78.18 107.592 78.762 106.836 79.194L109.914 84H106.872L104.082 79.788H102.336V84H99.7256V70.752H103.74ZM104.19 77.268C104.718 77.268 105.126 77.16 105.414 76.944C105.714 76.716 105.924 76.452 106.044 76.152C106.164 75.84 106.224 75.558 106.224 75.306C106.224 75.162 106.2 74.982 106.152 74.766C106.116 74.538 106.032 74.31 105.9 74.082C105.768 73.854 105.564 73.662 105.288 73.506C105.024 73.35 104.664 73.272 104.208 73.272H102.336V77.268H104.19ZM110.798 77.394C110.798 76.482 110.972 75.618 111.32 74.802C111.668 73.986 112.148 73.266 112.76 72.642C113.384 72.006 114.104 71.508 114.92 71.148C115.736 70.788 116.612 70.608 117.548 70.608C118.472 70.608 119.342 70.788 120.158 71.148C120.974 71.508 121.694 72.006 122.318 72.642C122.954 73.266 123.446 73.986 123.794 74.802C124.154 75.618 124.334 76.482 124.334 77.394C124.334 78.33 124.154 79.206 123.794 80.022C123.446 80.838 122.954 81.558 122.318 82.182C121.694 82.794 120.974 83.274 120.158 83.622C119.342 83.97 118.472 84.144 117.548 84.144C116.612 84.144 115.736 83.97 114.92 83.622C114.104 83.274 113.384 82.794 112.76 82.182C112.148 81.558 111.668 80.838 111.32 80.022C110.972 79.206 110.798 78.33 110.798 77.394ZM113.498 77.394C113.498 78.174 113.678 78.888 114.038 79.536C114.41 80.172 114.908 80.682 115.532 81.066C116.156 81.438 116.858 81.624 117.638 81.624C118.394 81.624 119.072 81.438 119.672 81.066C120.284 80.682 120.764 80.172 121.112 79.536C121.46 78.888 121.634 78.174 121.634 77.394C121.634 76.59 121.454 75.87 121.094 75.234C120.734 74.586 120.248 74.076 119.636 73.704C119.024 73.32 118.334 73.128 117.566 73.128C116.798 73.128 116.108 73.32 115.496 73.704C114.884 74.076 114.398 74.586 114.038 75.234C113.678 75.87 113.498 76.59 113.498 77.394ZM129.277 79.104C129.277 79.524 129.403 79.926 129.655 80.31C129.907 80.694 130.237 81.006 130.645 81.246C131.065 81.486 131.521 81.606 132.013 81.606C132.553 81.606 133.033 81.486 133.453 81.246C133.873 81.006 134.203 80.694 134.443 80.31C134.695 79.926 134.821 79.524 134.821 79.104V70.752H137.395V79.158C137.395 80.13 137.155 80.994 136.675 81.75C136.195 82.494 135.547 83.082 134.731 83.514C133.915 83.934 133.009 84.144 132.013 84.144C131.029 84.144 130.129 83.934 129.313 83.514C128.509 83.082 127.867 82.494 127.387 81.75C126.907 80.994 126.667 80.13 126.667 79.158V70.752H129.277V79.104ZM144.556 70.752C146.2 70.752 147.46 71.16 148.336 71.976C149.212 72.78 149.65 73.86 149.65 75.216C149.65 75.756 149.566 76.302 149.398 76.854C149.242 77.394 148.984 77.886 148.624 78.33C148.276 78.774 147.802 79.134 147.202 79.41C146.614 79.674 145.888 79.806 145.024 79.806H143.152V84H140.542V70.752H144.556ZM145.006 77.268C145.534 77.268 145.942 77.154 146.23 76.926C146.53 76.686 146.74 76.41 146.86 76.098C146.98 75.786 147.04 75.516 147.04 75.288C147.04 75.156 147.016 74.982 146.968 74.766C146.932 74.538 146.848 74.31 146.716 74.082C146.584 73.854 146.38 73.662 146.104 73.506C145.84 73.35 145.48 73.272 145.024 73.272H143.152V77.268H145.006Z" fill="black"/>
<path d="M75.292 14.5V49.5" stroke="#09AEB8" stroke-width="3" stroke-miterlimit="10" stroke-linecap="round"/>
<path d="M79.2771 9.96L75.2918 15.04L71.3066 9.96" stroke="#09AEB8" stroke-width="3" stroke-miterlimit="10" stroke-linecap="round"/>
<path d="M71.3066 54.04L75.2918 48.96L79.2771 54.04" stroke="#09AEB8" stroke-width="3" stroke-miterlimit="10" stroke-linecap="round"/>
<path d="M87.4043 19.63L63.1797 44.37" stroke="#09AEB8" stroke-width="3" stroke-miterlimit="10" stroke-linecap="round"/>
<path d="M93.3674 19.3L87.042 20L87.7274 13.54" stroke="#09AEB8" stroke-width="3" stroke-miterlimit="10" stroke-linecap="round"/>
<path d="M57.2163 44.7L63.5417 44L62.8563 50.46" stroke="#09AEB8" stroke-width="3" stroke-miterlimit="10" stroke-linecap="round"/>
<path d="M92.4271 32H58.1562" stroke="#09AEB8" stroke-width="3" stroke-miterlimit="10" stroke-linecap="round"/>
<path d="M96.8726 36.07L91.8984 32L96.8726 27.93" stroke="#09AEB8" stroke-width="3" stroke-miterlimit="10" stroke-linecap="round"/>
<path d="M53.7109 27.93L58.6851 32L53.7109 36.07" stroke="#09AEB8" stroke-width="3" stroke-miterlimit="10" stroke-linecap="round"/>
<path d="M87.4043 44.37L63.1797 19.63" stroke="#09AEB8" stroke-width="3" stroke-miterlimit="10" stroke-linecap="round"/>
<path d="M87.7274 50.46L87.042 44L93.3674 44.7" stroke="#09AEB8" stroke-width="3" stroke-miterlimit="10" stroke-linecap="round"/>
<path d="M62.8563 13.54L63.5417 20L57.2163 19.3" stroke="#09AEB8" stroke-width="3" stroke-miterlimit="10" stroke-linecap="round"/>
<path d="M75.5414 19.0185L63.0786 31.7464L75.5414 44.4744L88.0041 31.7464L75.5414 19.0185Z" stroke="#09AEB8" stroke-width="3" stroke-miterlimit="10" stroke-linecap="round"/>
</svg>
