<svg xmlns="http://www.w3.org/2000/svg" width="300" height="67" viewBox="0 0 300 67" fill="none"><path d="M87.8757 44.204C87.8757 45.6499 87.5788 46.7608 86.9852 47.5369C86.407 48.3132 85.4406 48.7013 84.0861 48.7013C82.8076 48.7013 81.9022 48.3132 81.3694 47.5369C80.852 46.7608 80.5933 45.6499 80.5933 44.204V20.0741C80.5933 18.6282 80.852 17.5173 81.3694 16.7411C81.9022 15.9649 82.8076 15.5768 84.0861 15.5768C85.4406 15.5768 86.407 15.9649 86.9852 16.7411C87.5788 17.5173 87.8757 18.6282 87.8757 20.0741V44.204Z" fill="#4A4A4A"></path><path d="M90.0859 37.1957C90.0859 35.5823 90.3446 34.0605 90.8622 32.6299C91.3948 31.184 92.1861 29.9209 93.2363 28.8403C94.3017 27.7597 95.6258 26.8999 97.2086 26.2607C98.8066 25.6214 100.678 25.3019 102.824 25.3019C104.879 25.3019 106.698 25.5986 108.281 26.1921C109.863 26.7857 111.195 27.6152 112.275 28.6806C113.356 29.7306 114.178 30.9861 114.741 32.4471C115.304 33.893 115.586 35.4758 115.586 37.1957C115.586 38.7937 115.319 40.3079 114.787 41.7386C114.254 43.1538 113.455 44.4019 112.39 45.4825C111.324 46.5477 109.993 47.4 108.395 48.0393C106.797 48.6633 104.94 48.9752 102.824 48.9752C100.739 48.9752 98.8979 48.6785 97.2998 48.0849C95.717 47.4762 94.3855 46.6467 93.3049 45.5965C92.2395 44.5313 91.4328 43.2834 90.885 41.8527C90.3522 40.4069 90.0859 38.8545 90.0859 37.1957ZM97.688 37.1957C97.688 38.2001 97.7792 39.159 97.9619 40.072C98.1444 40.9699 98.4337 41.7614 98.8294 42.4463C99.2402 43.131 99.773 43.679 100.427 44.0899C101.082 44.4855 101.881 44.6834 102.824 44.6834C103.692 44.6834 104.445 44.5009 105.084 44.1355C105.739 43.7704 106.272 43.2604 106.683 42.606C107.109 41.9517 107.428 41.1678 107.641 40.2547C107.854 39.3263 107.961 38.3067 107.961 37.1957C107.961 36.1911 107.862 35.2399 107.664 34.342C107.481 33.429 107.185 32.6299 106.774 31.9449C106.363 31.245 105.83 30.697 105.176 30.3014C104.537 29.8905 103.753 29.685 102.824 29.685C101.896 29.685 101.105 29.8827 100.45 30.2786C99.7958 30.6742 99.2632 31.2144 98.8522 31.8993C98.4413 32.5843 98.1444 33.3832 97.9619 34.2964C97.7792 35.2095 97.688 36.1759 97.688 37.1957Z" fill="#4A4A4A"></path><path d="M134.324 44.2954C133.913 45.0563 133.411 45.7031 132.818 46.2358C132.239 46.7684 131.592 47.2099 130.877 47.5599C130.177 47.8946 129.424 48.1457 128.617 48.3133C127.826 48.4654 127.012 48.5416 126.174 48.5416C124.774 48.5416 123.496 48.2905 122.339 47.7881C121.183 47.2859 120.186 46.5629 119.349 45.6195C118.527 44.6607 117.888 43.4887 117.431 42.1038C116.974 40.7188 116.746 39.136 116.746 37.3555C116.746 35.6813 116.959 34.1137 117.385 32.6527C117.811 31.1916 118.428 29.9209 119.235 28.8403C120.056 27.7597 121.061 26.9075 122.248 26.2835C123.435 25.6596 124.79 25.3475 126.311 25.3475C128.046 25.3475 129.584 25.6823 130.923 26.3519C132.277 27.0216 133.442 28.1174 134.416 29.6392V29.0459C134.416 27.9501 134.712 27.1282 135.306 26.5802C135.915 26.0172 136.752 25.7355 137.817 25.7355C138.456 25.7355 138.997 25.8421 139.438 26.0552C139.879 26.2531 140.229 26.5574 140.488 26.9684C140.747 27.3641 140.929 27.8587 141.036 28.4523C141.158 29.0305 141.219 29.6926 141.219 30.4383V45.7336C141.219 47.5903 140.983 49.2491 140.511 50.7101C140.054 52.1712 139.339 53.4041 138.365 54.4085C137.391 55.4129 136.143 56.1738 134.621 56.6914C133.099 57.224 131.288 57.4903 129.188 57.4903C127.712 57.4903 126.403 57.422 125.261 57.2848C124.135 57.1633 123.161 56.9729 122.339 56.7142C121.517 56.4249 120.894 56.1055 120.467 55.7554C120.056 55.4053 119.851 54.9487 119.851 54.3857C119.851 54.066 119.896 53.7618 119.988 53.4725C120.079 53.1834 120.216 52.9247 120.399 52.6964C120.597 52.4833 120.848 52.3083 121.152 52.1712C121.472 52.0496 121.86 51.9886 122.316 51.9886C122.803 51.9886 123.29 52.019 123.777 52.08C124.28 52.1408 124.797 52.2018 125.33 52.2625C125.878 52.3387 126.448 52.4071 127.042 52.4681C127.651 52.5288 128.305 52.5594 129.005 52.5594C129.842 52.5594 130.588 52.4757 131.243 52.3083C131.897 52.1408 132.452 51.8441 132.909 51.4179C133.366 50.9918 133.716 50.421 133.959 49.7057C134.203 49.0056 134.324 48.1077 134.324 47.012V44.2954ZM134.324 37.1957C134.324 36.0846 134.241 35.0725 134.073 34.1595C133.921 33.2462 133.655 32.4701 133.274 31.8308C132.894 31.1764 132.384 30.6742 131.745 30.3242C131.105 29.9589 130.306 29.7764 129.348 29.7764C128.404 29.7764 127.62 29.9665 126.996 30.347C126.388 30.7274 125.901 31.2526 125.535 31.9221C125.17 32.5919 124.911 33.3756 124.759 34.2736C124.622 35.1715 124.554 36.1303 124.554 37.1499C124.554 39.4784 124.965 41.2288 125.786 42.4005C126.608 43.5725 127.803 44.1584 129.37 44.1584C130.101 44.1433 130.763 44.0061 131.356 43.7474C131.965 43.4735 132.49 43.0551 132.932 42.4919C133.373 41.9287 133.716 41.2134 133.959 40.3459C134.203 39.4784 134.324 38.4284 134.324 37.1957Z" fill="#4A4A4A"></path><path d="M143.315 37.1957C143.315 35.5823 143.574 34.0605 144.092 32.6299C144.624 31.184 145.416 29.9209 146.466 28.8403C147.531 27.7597 148.855 26.8999 150.438 26.2607C152.036 25.6214 153.908 25.3019 156.054 25.3019C158.108 25.3019 159.927 25.5986 161.51 26.1921C163.093 26.7857 164.424 27.6152 165.505 28.6806C166.585 29.7306 167.407 30.9861 167.97 32.4471C168.534 33.893 168.815 35.4758 168.815 37.1957C168.815 38.7937 168.549 40.3079 168.016 41.7386C167.483 43.1538 166.684 44.4019 165.619 45.4825C164.554 46.5477 163.222 47.4 161.624 48.0393C160.026 48.6633 158.169 48.9752 156.054 48.9752C153.969 48.9752 152.127 48.6785 150.529 48.0849C148.946 47.4762 147.615 46.6467 146.534 45.5965C145.469 44.5313 144.662 43.2834 144.114 41.8527C143.582 40.4069 143.315 38.8545 143.315 37.1957ZM150.917 37.1957C150.917 38.2001 151.009 39.159 151.191 40.072C151.374 40.9699 151.663 41.7614 152.059 42.4463C152.47 43.131 153.002 43.679 153.657 44.0899C154.311 44.4855 155.11 44.6834 156.054 44.6834C156.921 44.6834 157.675 44.5009 158.314 44.1355C158.968 43.7704 159.501 43.2604 159.912 42.606C160.338 41.9517 160.658 41.1678 160.871 40.2547C161.084 39.3263 161.19 38.3067 161.19 37.1957C161.19 36.1911 161.091 35.2399 160.893 34.342C160.711 33.429 160.414 32.6299 160.003 31.9449C159.592 31.245 159.06 30.697 158.405 30.3014C157.766 29.8905 156.982 29.685 156.054 29.685C155.125 29.685 154.334 29.8827 153.68 30.2786C153.025 30.6742 152.493 31.2144 152.082 31.8993C151.671 32.5843 151.374 33.3832 151.191 34.2964C151.009 35.2095 150.917 36.1759 150.917 37.1957Z" fill="#4A4A4A"></path><path d="M178.605 17.6086C178.605 18.1108 178.491 18.5598 178.263 18.9555C178.034 19.3359 177.738 19.6555 177.372 19.9144C177.007 20.1731 176.581 20.3708 176.094 20.5077C175.622 20.6295 175.135 20.6905 174.633 20.6905C174.1 20.6905 173.59 20.6219 173.103 20.4849C172.632 20.348 172.213 20.1503 171.848 19.8914C171.483 19.6175 171.193 19.2903 170.98 18.9098C170.767 18.5293 170.661 18.0956 170.661 17.6086C170.661 17.1672 170.76 16.7639 170.957 16.3986C171.17 16.0182 171.452 15.691 171.802 15.417C172.152 15.1431 172.571 14.93 173.058 14.7778C173.545 14.6256 174.077 14.5495 174.656 14.5495C175.158 14.5495 175.645 14.618 176.117 14.755C176.604 14.8919 177.03 15.0898 177.395 15.3485C177.76 15.6072 178.05 15.9268 178.263 16.3073C178.491 16.6878 178.605 17.1215 178.605 17.6086ZM178.263 44.204C178.263 45.6499 177.966 46.7608 177.372 47.537C176.794 48.3133 175.827 48.7013 174.473 48.7013C173.195 48.7013 172.289 48.3133 171.756 47.537C171.239 46.7608 170.98 45.6499 170.98 44.204V30.2328C170.98 28.787 171.239 27.676 171.756 26.8999C172.289 26.1238 173.195 25.7355 174.473 25.7355C175.827 25.7355 176.794 26.1238 177.372 26.8999C177.966 27.676 178.263 28.787 178.263 30.2328V44.204Z" fill="#4A4A4A"></path><path d="M188.76 37.1499C188.76 38.1697 188.836 39.1208 188.989 40.0036C189.156 40.8863 189.43 41.6624 189.81 42.3321C190.206 42.9865 190.724 43.5039 191.363 43.8844C192.017 44.265 192.824 44.4551 193.783 44.4551C194.665 44.4551 195.403 44.2726 195.997 43.9073C196.605 43.5269 197.092 43.0093 197.459 42.3549C197.823 41.6852 198.082 40.9015 198.234 40.0036C198.401 39.1056 198.485 38.1316 198.485 37.0816C198.485 36.2445 198.425 35.3922 198.302 34.5247C198.181 33.6419 197.953 32.843 197.618 32.1277C197.283 31.4123 196.82 30.8264 196.225 30.3697C195.631 29.9133 194.856 29.685 193.897 29.685C192.938 29.685 192.124 29.8371 191.454 30.1416C190.8 30.4459 190.267 30.9101 189.856 31.5341C189.46 32.1581 189.179 32.942 189.011 33.8854C188.844 34.8138 188.76 35.902 188.76 37.1499ZM188.737 30.2328C189.118 29.4263 189.605 28.7186 190.199 28.1098C190.792 27.501 191.446 26.9912 192.162 26.5802C192.877 26.1694 193.623 25.8649 194.399 25.6671C195.191 25.454 195.974 25.3475 196.749 25.3475C198.15 25.3475 199.414 25.6596 200.54 26.2835C201.666 26.9075 202.625 27.7597 203.416 28.8403C204.222 29.9057 204.84 31.1688 205.266 32.6299C205.691 34.0757 205.905 35.6281 205.905 37.2869C205.905 39.0066 205.675 40.5818 205.22 42.0125C204.779 43.4431 204.146 44.6758 203.324 45.7107C202.518 46.7305 201.544 47.5294 200.402 48.1077C199.276 48.6861 198.022 48.9752 196.636 48.9752C194.932 48.9752 193.41 48.5796 192.07 47.7881C190.731 46.9968 189.62 45.8858 188.737 44.4551V52.6736C188.737 54.1192 188.441 55.2304 187.847 56.0065C187.269 56.7826 186.302 57.1708 184.948 57.1708C183.669 57.1708 182.764 56.7826 182.231 56.0065C181.714 55.2304 181.455 54.1192 181.455 52.6736V30.2328C181.455 28.787 181.714 27.676 182.231 26.8999C182.764 26.1238 183.669 25.7355 184.948 25.7355C186.302 25.7355 187.269 26.1238 187.847 26.8999C188.441 27.676 188.737 28.787 188.737 30.2328Z" fill="#4A4A4A"></path><path d="M213.937 31.8538C213.937 32.4471 214.196 32.9114 214.713 33.2462C215.231 33.5659 215.946 33.8322 216.859 34.0453C217.726 34.243 218.617 34.4334 219.53 34.6159C220.444 34.7986 221.334 35.0117 222.201 35.2553C223.068 35.4834 223.882 35.7575 224.644 36.0769C225.404 36.3966 226.074 36.7999 226.652 37.2869C227.231 37.7587 227.687 38.3371 228.022 39.0218C228.357 39.6916 228.524 40.4982 228.524 41.4417C228.524 42.6288 228.281 43.6866 227.794 44.6149C227.307 45.5281 226.615 46.3042 225.717 46.9436C224.835 47.5827 223.777 48.0773 222.544 48.4274C221.311 48.7775 219.949 48.96 218.457 48.9752C217.043 48.9752 215.679 48.884 214.37 48.7013C213.063 48.534 211.898 48.2675 210.877 47.9022C209.874 47.5369 209.067 47.0881 208.457 46.5553C207.85 46.0075 207.546 45.3684 207.546 44.6379C207.546 43.9985 207.75 43.5039 208.161 43.1538C208.572 42.804 209.096 42.6288 209.737 42.6288C209.981 42.6288 210.269 42.6744 210.604 42.7658C210.939 42.8571 211.304 42.9713 211.699 43.1082C212.094 43.2452 212.513 43.3973 212.956 43.5649C213.411 43.717 213.883 43.854 214.37 43.9757C214.98 44.1432 215.603 44.2802 216.242 44.3867C216.896 44.4779 217.567 44.5237 218.252 44.5237C218.677 44.5237 219.096 44.4855 219.507 44.4095C219.918 44.3182 220.284 44.1888 220.604 44.0215C220.939 43.8388 221.211 43.6104 221.426 43.3366C221.638 43.0627 221.767 42.7278 221.813 42.3321C221.858 42.2408 221.897 42.1494 221.926 42.058C221.957 41.9669 221.973 41.8603 221.973 41.7386C221.973 41.3123 221.774 40.9319 221.379 40.597C220.999 40.2623 220.457 39.9958 219.758 39.7981C218.585 39.5242 217.467 39.2731 216.402 39.0448C215.338 38.8165 214.348 38.573 213.435 38.3143C212.537 38.0556 211.715 37.7587 210.969 37.4238C210.238 37.0891 209.615 36.6781 209.096 36.1911C208.596 35.7041 208.198 35.1181 207.91 34.4334C207.635 33.7484 207.499 32.919 207.499 31.9449C207.499 30.8949 207.735 29.9589 208.206 29.137C208.693 28.2999 209.387 27.6 210.285 27.0368C211.183 26.4736 212.27 26.0476 213.55 25.7585C214.828 25.454 216.273 25.3019 217.886 25.3019C220.777 25.3019 222.976 25.6519 224.484 26.3519C226.006 27.0368 226.767 27.9347 226.767 29.0458C226.767 29.6698 226.561 30.1492 226.15 30.4839C225.739 30.8036 225.244 30.9633 224.667 30.9633C224.361 30.9633 224.042 30.9101 223.707 30.8036C223.387 30.6818 223 30.5525 222.544 30.4155C222.086 30.2634 221.539 30.134 220.9 30.0275C220.276 29.9057 219.499 29.8447 218.572 29.8447C217.87 29.8447 217.231 29.8751 216.653 29.9361C216.09 29.9969 215.603 30.1034 215.192 30.2556C214.796 30.4079 214.485 30.6132 214.257 30.8721C214.043 31.1308 213.937 31.4579 213.937 31.8538Z" fill="#4A4A4A"></path><path d="M237.789 40.2318C237.789 40.9471 237.881 41.5711 238.064 42.1038C238.261 42.6364 238.527 43.0855 238.863 43.4507C239.198 43.8008 239.585 44.0671 240.025 44.2496C240.483 44.4172 240.97 44.5009 241.487 44.5009C242.096 44.5009 242.683 44.4096 243.246 44.2268C243.809 44.0443 244.303 43.7626 244.73 43.3822C245.17 43.0017 245.521 42.5223 245.78 41.9439C246.037 41.3657 246.168 40.6884 246.168 39.9123V30.2328C246.168 28.787 246.427 27.676 246.943 26.8999C247.477 26.1238 248.383 25.7355 249.661 25.7355C251.014 25.7355 251.981 26.1238 252.559 26.8999C253.153 27.676 253.45 28.787 253.45 30.2328V44.204C253.45 45.6499 253.153 46.7609 252.559 47.537C251.981 48.3133 251.014 48.7013 249.661 48.7013C248.383 48.7013 247.477 48.3133 246.943 47.537C246.427 46.7609 246.168 45.6499 246.168 44.204C245.848 44.9042 245.429 45.5433 244.911 46.1217C244.409 46.7001 243.816 47.2023 243.131 47.6283C242.461 48.0394 241.716 48.3588 240.894 48.5872C240.088 48.8155 239.211 48.9296 238.268 48.9296C237.25 48.9296 236.268 48.7545 235.323 48.4046C234.396 48.0394 233.574 47.5066 232.859 46.8064C232.144 46.0913 231.573 45.2085 231.146 44.1585C230.72 43.1083 230.507 41.8831 230.507 40.4829V30.2328C230.507 28.787 230.766 27.676 231.283 26.8999C231.816 26.1238 232.72 25.7355 234 25.7355C235.354 25.7355 236.32 26.1238 236.899 26.8999C237.493 27.676 237.789 28.787 237.789 30.2328V40.2318Z" fill="#4A4A4A"></path><path d="M256.755 30.2328C256.755 28.787 257.014 27.676 257.532 26.8999C258.064 26.1238 258.97 25.7355 260.248 25.7355C261.604 25.7355 262.57 26.1238 263.148 26.8999C263.741 27.676 264.039 28.787 264.039 30.2328C264.343 29.5023 264.754 28.8403 265.272 28.2468C265.804 27.638 266.406 27.1206 267.074 26.6944C267.759 26.2683 268.498 25.941 269.289 25.7127C270.08 25.4692 270.902 25.3475 271.755 25.3475C272.546 25.3475 273.321 25.454 274.083 25.6671C274.858 25.8649 275.575 26.1921 276.23 26.6488C276.898 27.09 277.484 27.6532 277.987 28.3381C278.489 29.0229 278.877 29.8447 279.152 30.8036C279.623 29.784 280.178 28.9241 280.817 28.224C281.456 27.5238 282.15 26.9607 282.894 26.5346C283.64 26.1084 284.417 25.8041 285.224 25.6214C286.046 25.4388 286.866 25.3475 287.688 25.3475C288.662 25.3475 289.591 25.5226 290.474 25.8725C291.372 26.2225 292.155 26.7553 292.825 27.4707C293.511 28.1706 294.05 29.061 294.446 30.1416C294.857 31.2068 295.061 32.4549 295.061 33.8854V44.204C295.061 45.6499 294.765 46.7608 294.171 47.537C293.595 48.3133 292.626 48.7013 291.272 48.7013C289.995 48.7013 289.089 48.3133 288.557 47.537C288.039 46.7608 287.78 45.6499 287.78 44.204V34.2051C287.78 33.5201 287.688 32.9114 287.507 32.3788C287.324 31.8308 287.065 31.3744 286.73 31.0091C286.41 30.6286 286.03 30.347 285.588 30.1644C285.148 29.9665 284.674 29.8675 284.174 29.8675C283.548 29.8675 282.956 29.9665 282.393 30.1644C281.83 30.3621 281.335 30.6666 280.909 31.0775C280.498 31.4885 280.163 32.0135 279.904 32.6527C279.66 33.2918 279.539 34.0605 279.539 34.9584V44.204C279.539 45.6499 279.241 46.7608 278.649 47.537C278.07 48.3133 277.104 48.7013 275.748 48.7013C274.47 48.7013 273.565 48.3133 273.033 47.537C272.515 46.7608 272.256 45.6499 272.256 44.204V34.6387C272.256 33.0713 271.928 31.8842 271.276 31.0775C270.635 30.271 269.76 29.8675 268.65 29.8675C267.995 29.8675 267.385 29.9741 266.822 30.1872C266.259 30.4003 265.772 30.7122 265.361 31.1233C264.95 31.5341 264.623 32.0439 264.38 32.6527C264.152 33.2614 264.039 33.9616 264.039 34.7529V44.204C264.039 45.6499 263.741 46.7608 263.148 47.537C262.57 48.3133 261.604 48.7013 260.248 48.7013C258.97 48.7013 258.064 48.3133 257.532 47.537C257.014 46.7608 256.755 45.6499 256.755 44.204V30.2328Z" fill="#4A4A4A"></path><path d="M33.117 44.8052C26.6618 44.8052 21.4287 39.5721 21.4287 33.1169C21.4287 26.6616 26.6618 21.4286 33.117 21.4286C39.5723 21.4286 44.8053 26.6616 44.8053 33.1169C44.8053 39.5721 39.5723 44.8052 33.117 44.8052Z" fill="#4A4A4A"></path><path d="M10.4729 37.1096C7.08572 37.7069 4.764 40.9788 6.06422 44.1631C7.8795 48.6086 10.7755 52.5694 14.53 55.6644C19.8987 60.0898 26.6701 62.4546 33.6266 62.3332C40.5831 62.2118 47.268 59.6122 52.4791 55.0019C56.1231 51.7779 58.8792 47.7183 60.5384 43.2123C61.7267 39.9846 59.292 36.7956 55.886 36.317C52.4802 35.8383 49.4222 38.3174 47.7399 41.3174C46.828 42.9435 45.6441 44.4187 44.226 45.6735C41.2361 48.3187 37.4006 49.8101 33.4094 49.8799C29.418 49.9494 25.5328 48.5928 22.4526 46.0535C20.9913 44.849 19.7569 43.416 18.7887 41.8227C17.0028 38.8833 13.8601 36.5123 10.4729 37.1096Z" fill="#4A4A4A"></path><path d="M62.1116 36.7685C62.2608 35.5722 62.3376 34.3535 62.3376 33.1169C62.3376 16.9787 49.255 3.8961 33.1168 3.8961C16.9786 3.8961 3.896 16.9787 3.896 33.1169C3.896 34.704 4.02252 36.2614 4.26605 37.7799C5.60822 35.9425 7.703 34.6309 9.96566 34.2319C12.4138 33.8003 14.6387 34.394 16.5199 35.5038C16.4088 34.7242 16.3513 33.9273 16.3513 33.1169C16.3513 23.8576 23.8575 16.3514 33.1168 16.3514C42.3761 16.3514 49.8823 23.8576 49.8823 33.1169C49.8823 33.7274 49.8496 34.3303 49.7861 34.9239C51.6276 33.7486 53.8308 33.0771 56.2929 33.4233C58.5675 33.743 60.7061 34.98 62.1116 36.7685Z" fill="#4A4A4A"></path></svg>