<svg xmlns="http://www.w3.org/2000/svg" width="300" height="94" viewBox="0 0 300 94" fill="none"><path fill-rule="evenodd" clip-rule="evenodd" d="M148.318 15.1173C151.15 12.2852 155.742 12.2852 158.574 15.1173C161.406 17.9495 161.406 22.5414 158.574 25.3737L141.307 42.6408C136.349 35.9967 136.888 26.5473 142.923 20.5127L148.318 15.1173Z" fill="#4A4A4A"></path><path fill-rule="evenodd" clip-rule="evenodd" d="M173.002 54.0749C175.834 56.9069 175.834 61.499 173.002 64.331C170.171 67.1633 165.578 67.1633 162.746 64.331L145.479 47.0641C152.123 42.1065 161.572 42.6449 167.607 48.6796L173.002 54.0749Z" fill="#4A4A4A"></path><path fill-rule="evenodd" clip-rule="evenodd" d="M134.045 78.76C131.213 81.5922 126.621 81.5922 123.789 78.76C120.956 75.9278 120.956 71.3359 123.789 68.5037L141.056 51.2367C146.013 57.8808 145.475 67.3302 139.44 73.3647L134.045 78.76Z" fill="#4A4A4A"></path><path fill-rule="evenodd" clip-rule="evenodd" d="M109.36 39.8025C106.528 36.9702 106.528 32.3784 109.36 29.5461C112.192 26.7139 116.784 26.7139 119.616 29.5461L136.883 46.8133C130.239 51.7708 120.79 51.2322 114.755 45.1978L109.36 39.8025Z" fill="#4A4A4A"></path><path fill-rule="evenodd" clip-rule="evenodd" d="M144.458 76.6453C148.635 72.002 150.576 66.0606 150.281 60.2108L158.574 68.5035C158.594 68.5241 158.615 68.5447 158.636 68.5653V74.4857C158.636 78.491 155.389 81.738 151.384 81.738C148.131 81.738 145.378 79.5959 144.458 76.6453Z" fill="#4A4A4A"></path><path fill-rule="evenodd" clip-rule="evenodd" d="M111.475 50.2159C116.118 54.3922 122.059 56.3333 127.909 56.0388L119.617 64.3314C119.596 64.352 119.575 64.3729 119.555 64.3935H113.635C109.629 64.3937 106.382 61.1465 106.382 57.1412C106.382 53.8882 108.524 51.1351 111.475 50.2159Z" fill="#4A4A4A"></path><path fill-rule="evenodd" clip-rule="evenodd" d="M170.888 43.6616C166.245 39.4853 160.304 37.5443 154.454 37.8386L162.747 29.5461C162.767 29.5255 162.788 29.5047 162.808 29.4839H168.729C172.735 29.4839 175.982 32.731 175.982 36.7363C175.982 39.9896 173.839 42.7424 170.888 43.6616Z" fill="#4A4A4A"></path><path fill-rule="evenodd" clip-rule="evenodd" d="M137.904 17.232C133.728 21.8751 131.787 27.8165 132.081 33.6665L123.789 25.3739C123.768 25.3533 123.747 25.3327 123.727 25.312V19.3916C123.727 15.3863 126.974 12.1391 130.979 12.1391C134.232 12.1391 136.985 14.2814 137.904 17.232Z" fill="#4A4A4A"></path><path fill-rule="evenodd" clip-rule="evenodd" d="M130.979 6.2388C123.715 6.2388 117.826 12.1276 117.826 19.3917V21.9498C113.456 20.808 108.613 21.9492 105.188 25.3739C100.052 30.5104 100.052 38.8384 105.188 43.9749L106.997 45.7837C103.099 48.0665 100.482 52.2982 100.482 57.1412C100.482 64.4053 106.371 70.2941 113.635 70.2941H116.193C115.051 74.6643 116.192 79.5075 119.617 82.932C124.753 88.0686 133.081 88.0686 138.218 82.932L143.613 77.5369C148.372 72.7775 150.595 66.442 150.282 60.2106L158.574 68.5033C163.711 73.6398 172.039 73.6398 177.176 68.5033C182.313 63.3667 182.313 55.0388 177.176 49.9024L175.368 48.0939C179.264 45.811 181.882 41.5794 181.882 36.7363C181.882 29.4722 175.992 23.5835 168.729 23.5835H166.171C167.313 19.2131 166.171 14.3698 162.747 10.9451C157.61 5.8086 149.282 5.8086 144.146 10.9451L138.751 16.3404C133.991 21.0998 131.768 27.4351 132.082 33.6665L123.789 25.3739C123.768 25.3533 123.748 25.3327 123.727 25.312V19.3917C123.727 15.3864 126.974 12.1394 130.979 12.1394C134.233 12.1394 136.985 14.2815 137.905 17.2321C138.177 16.9292 138.459 16.6319 138.75 16.3404L142.337 12.7539C140.054 8.85635 135.822 6.2388 130.979 6.2388ZM162.808 29.4841C162.788 29.5047 162.767 29.5255 162.747 29.5461L154.454 37.8386C160.304 37.5443 166.245 39.4851 170.888 43.6616C173.839 42.7424 175.982 39.9894 175.982 36.7363C175.982 32.731 172.735 29.4841 168.729 29.4841H162.808ZM119.555 64.3935C119.575 64.3726 119.596 64.3518 119.617 64.3312L127.909 56.0386C122.059 56.3331 116.118 54.392 111.475 50.2159C108.525 51.1351 106.382 53.888 106.382 57.1412C106.382 61.1465 109.629 64.3935 113.635 64.3935H119.555ZM111.249 50.0098C111.024 49.8018 110.802 49.5886 110.584 49.37V49.3702C110.802 49.5888 111.024 49.8018 111.249 50.0098ZM151.384 87.6388C146.541 87.6388 142.309 85.021 140.027 81.1235L143.613 77.5369C143.905 77.2455 144.186 76.9482 144.459 76.6453C145.378 79.5959 148.131 81.7382 151.384 81.7382C155.39 81.7382 158.637 78.4912 158.637 74.4859V68.5655C160.336 70.2429 162.379 71.3637 164.537 71.9275V74.4859C164.537 81.75 158.648 87.6388 151.384 87.6388ZM158.574 15.1174C155.742 12.2853 151.15 12.2853 148.318 15.1174L142.923 20.5127C136.888 26.5473 136.35 35.9967 141.307 42.6408L158.574 25.3737C161.407 22.5414 161.407 17.9496 158.574 15.1174ZM173.002 64.331C175.835 61.4988 175.835 56.9069 173.002 54.0747L167.608 48.6794C161.573 42.6449 152.124 42.1063 145.479 47.0639L162.747 64.331C165.579 67.1633 170.172 67.1633 173.002 64.331ZM134.045 78.7598C131.213 81.592 126.621 81.592 123.789 78.7598C120.957 75.9275 120.957 71.3357 123.789 68.5035L141.056 51.2363C146.014 57.8804 145.475 67.33 139.441 73.3645L134.045 78.7598ZM109.361 29.5461C106.528 32.3784 106.528 36.9702 109.361 39.8024L114.756 45.1978C120.791 51.2322 130.24 51.7708 136.884 46.8133L119.617 29.5461C116.785 26.7141 112.193 26.7141 109.361 29.5461Z" fill="#4A4A4A"></path><path d="M3.12793 32.8363H9.57813V52.8796H20.6565V58.3094H3.12793V32.8363Z" fill="#4A4A4A"></path><path d="M32.368 58.8561C30.2057 58.8561 28.3106 58.4674 26.6829 57.69C25.0551 56.8882 23.7919 55.7949 22.8929 54.4102C22.0184 53.001 21.5811 51.3855 21.5811 49.5633C21.5811 47.7412 22.0184 46.1378 22.8929 44.7531C23.7919 43.3439 25.0551 42.2506 26.6829 41.4733C28.3106 40.6714 30.2057 40.2706 32.368 40.2706C34.5302 40.2706 36.4251 40.6714 38.0529 41.4733C39.6806 42.2506 40.9319 43.3439 41.8064 44.7531C42.7053 46.1378 43.1547 47.7412 43.1547 49.5633C43.1547 51.3855 42.7053 53.001 41.8064 54.4102C40.9319 55.7949 39.6806 56.8882 38.0529 57.69C36.4251 58.4674 34.5302 58.8561 32.368 58.8561ZM32.368 53.8635C33.6555 53.8635 34.676 53.4869 35.429 52.7339C36.2066 51.9563 36.5951 50.8996 36.5951 49.5633C36.5951 48.2271 36.2066 47.1825 35.429 46.4294C34.676 45.6518 33.6555 45.2633 32.368 45.2633C31.0802 45.2633 30.0478 45.6518 29.2704 46.4294C28.5172 47.1825 28.1406 48.2271 28.1406 49.5633C28.1406 50.8996 28.5172 51.9563 29.2704 52.7339C30.0478 53.4869 31.0802 53.8635 32.368 53.8635Z" fill="#4A4A4A"></path><path d="M55.2026 66.6912C54.0365 66.6912 52.8581 66.5818 51.6677 66.3633C50.5016 66.1445 49.4932 65.8531 48.643 65.4886V61.0427C50.5622 61.8686 52.7487 62.2816 55.2026 62.2816C56.9761 62.2816 58.2516 61.9171 59.0289 61.1884C59.8308 60.4596 60.2316 59.3906 60.2316 57.9814V56.9247C59.5271 57.532 58.6524 58.0057 57.6077 58.3459C56.5873 58.6861 55.494 58.8561 54.3279 58.8561C52.4816 58.8561 50.8538 58.4674 49.4446 57.69C48.0357 56.9125 46.9302 55.8192 46.1285 54.4102C45.351 53.001 44.9624 51.3855 44.9624 49.5633C44.9624 47.7169 45.351 46.0892 46.1285 44.6802C46.9059 43.271 47.9991 42.1898 49.4083 41.4367C50.8173 40.6594 52.433 40.2706 54.2551 40.2706C56.7575 40.2706 58.8224 41.0359 60.4502 42.5665V40.8171H66.6455V57.1069C66.6455 60.1437 65.71 62.5004 63.8393 64.1767C61.993 65.8531 59.114 66.6912 55.2026 66.6912ZM55.9314 53.9C56.9275 53.9 57.8142 53.6449 58.5916 53.1347C59.3691 52.6245 59.9157 51.9443 60.2316 51.0939V48.0329C59.8914 47.1825 59.3326 46.5143 58.5553 46.0284C57.7777 45.5184 56.9032 45.2633 55.9314 45.2633C54.6195 45.2633 53.5626 45.6518 52.761 46.4294C51.9591 47.1825 51.5583 48.2149 51.5583 49.5269C51.5583 50.8631 51.9591 51.932 52.761 52.7339C53.5626 53.5112 54.6195 53.9 55.9314 53.9Z" fill="#4A4A4A"></path><path d="M79.0594 58.8561C76.8972 58.8561 75.0023 58.4674 73.3745 57.69C71.7467 56.8882 70.4833 55.7949 69.5845 54.4102C68.7098 53.001 68.2725 51.3855 68.2725 49.5633C68.2725 47.7412 68.7098 46.1378 69.5845 44.7531C70.4833 43.3439 71.7467 42.2506 73.3745 41.4733C75.0023 40.6714 76.8972 40.2706 79.0594 40.2706C81.2216 40.2706 83.1165 40.6714 84.7443 41.4733C86.3721 42.2506 87.6233 43.3439 88.498 44.7531C89.3967 46.1378 89.8463 47.7412 89.8463 49.5633C89.8463 51.3855 89.3967 53.001 88.498 54.4102C87.6233 55.7949 86.3721 56.8882 84.7443 57.69C83.1165 58.4674 81.2216 58.8561 79.0594 58.8561ZM79.0594 53.8635C80.3469 53.8635 81.3674 53.4869 82.1206 52.7339C82.898 51.9563 83.2867 50.8996 83.2867 49.5633C83.2867 48.2271 82.898 47.1825 82.1206 46.4294C81.3674 45.6518 80.3469 45.2633 79.0594 45.2633C77.7718 45.2633 76.7392 45.6518 75.9618 46.4294C75.2086 47.1825 74.8321 48.2271 74.8321 49.5633C74.8321 50.8996 75.2086 51.9563 75.9618 52.7339C76.7392 53.4869 77.7718 53.8635 79.0594 53.8635Z" fill="#4A4A4A"></path><path d="M192.718 32.8363H199.169V58.3094H192.718V32.8363Z" fill="#4A4A4A"></path><path d="M202.435 40.8171H208.63V42.5665C210.257 41.0359 212.322 40.2706 214.824 40.2706C216.647 40.2706 218.263 40.6594 219.671 41.4367C221.081 42.1898 222.173 43.271 222.951 44.6802C223.728 46.0649 224.118 47.6806 224.118 49.5269C224.118 51.349 223.728 52.9767 222.951 54.4102C222.173 55.8192 221.081 56.9125 219.671 57.69C218.287 58.4674 216.671 58.8561 214.824 58.8561C213.659 58.8561 212.54 58.6739 211.473 58.3094C210.428 57.9694 209.553 57.4955 208.849 56.8882V66.2902H202.435V40.8171ZM213.149 53.8635C214.461 53.8635 215.518 53.4749 216.318 52.6973C217.12 51.92 217.522 50.8631 217.522 49.5269C217.522 48.1906 217.12 47.1461 216.318 46.3929C215.518 45.6155 214.461 45.2267 213.149 45.2267C212.177 45.2267 211.302 45.4818 210.524 45.992C209.747 46.478 209.189 47.1461 208.849 47.9963V51.0939C209.189 51.9443 209.747 52.6245 210.524 53.1347C211.302 53.6206 212.177 53.8635 213.149 53.8635Z" fill="#4A4A4A"></path><path d="M233.68 58.8561C232.271 58.8561 230.802 58.7104 229.271 58.4188C227.741 58.1516 226.525 57.7629 225.627 57.2527V52.5516C226.622 53.1347 227.812 53.6206 229.198 54.0094C230.606 54.3737 231.894 54.5559 233.061 54.5559C233.91 54.5559 234.531 54.4951 234.918 54.3737C235.308 54.2522 235.502 54.0094 235.502 53.6449C235.502 53.3533 235.369 53.1224 235.102 52.9524C234.859 52.7582 234.396 52.5637 233.716 52.3694C233.061 52.1508 232.296 51.92 231.42 51.6769C229.939 51.2396 228.774 50.7902 227.922 50.3286C227.071 49.8669 226.441 49.2839 226.027 48.5794C225.614 47.8749 225.408 46.9882 225.408 45.9192C225.408 44.0241 226.149 42.6151 227.631 41.6918C229.137 40.7443 231.19 40.2706 233.79 40.2706C235.053 40.2706 236.378 40.4043 237.761 40.6714C239.171 40.9388 240.227 41.291 240.933 41.7284V46.3565C240.204 45.8706 239.231 45.4696 238.016 45.1539C236.827 44.838 235.708 44.6802 234.663 44.6802C233.839 44.6802 233.194 44.7651 232.733 44.9351C232.271 45.081 232.041 45.3482 232.041 45.7369C232.041 46.1014 232.271 46.3808 232.733 46.5751C233.194 46.7694 234.02 47.0125 235.21 47.3039C235.988 47.4984 236.316 47.5833 236.194 47.559C237.749 47.972 238.951 48.4337 239.802 48.9439C240.653 49.4541 241.247 50.0614 241.588 50.7659C241.953 51.4461 242.135 52.3208 242.135 53.3898C242.135 55.0661 241.406 56.4022 239.949 57.3984C238.514 58.3702 236.425 58.8561 233.68 58.8561Z" fill="#4A4A4A"></path><path d="M251.71 58.8561C249.306 58.8561 247.496 58.188 246.282 56.8518C245.092 55.5155 244.496 53.7543 244.496 51.5677V40.8171H250.91V50.8388C250.91 52.8553 251.821 53.8635 253.643 53.8635C254.47 53.8635 255.223 53.6692 255.902 53.2804C256.582 52.8916 257.141 52.3208 257.578 51.5677V40.8171H263.992V58.3094H257.798V56.4145C257.045 57.2161 256.133 57.8235 255.063 58.2365C253.996 58.6496 252.878 58.8561 251.71 58.8561Z" fill="#4A4A4A"></path><path d="M267.275 40.8171H273.216V42.7123C273.945 41.9349 274.784 41.3396 275.731 40.9265C276.677 40.4892 277.686 40.2706 278.755 40.2706C280.067 40.2706 281.112 40.4649 281.89 40.8537C282.692 41.2425 283.335 41.8255 283.82 42.6029C284.549 41.8741 285.437 41.3031 286.482 40.8902C287.526 40.4771 288.584 40.2706 289.651 40.2706C291.959 40.2706 293.6 40.8659 294.571 42.0563C295.543 43.2225 296.028 44.9108 296.028 47.1216V58.3094H289.906V48.0329C289.906 47.061 289.724 46.3565 289.359 45.9192C288.996 45.4818 288.388 45.2633 287.539 45.2633C286.445 45.2633 285.557 45.6518 284.877 46.4294C284.902 46.8423 284.914 47.4741 284.914 48.3243V58.3094H278.792V47.7778C278.792 46.8788 278.635 46.2349 278.318 45.8463C278.002 45.4576 277.443 45.2633 276.643 45.2633C275.402 45.2633 274.335 45.9555 273.435 47.3404V58.3094H267.275V40.8171Z" fill="#4A4A4A"></path></svg>