<svg xmlns="http://www.w3.org/2000/svg" width="300" height="82" viewBox="0 0 300 82" fill="none"><path d="M100.986 54.0373H107.543V23.1801H100.986V54.0373Z" fill="#4A4A4A"></path><path d="M120.994 54.723C127.852 54.723 132.352 50.3087 132.352 42.5087C132.352 34.9658 127.98 30.2516 120.994 30.2516C114.137 30.2516 109.68 34.6658 109.68 42.5087C109.68 50.0944 114.009 54.723 120.994 54.723ZM120.994 49.4087C118.037 49.4087 116.409 46.9658 116.409 42.5087C116.409 38.0087 117.994 35.5658 120.994 35.5658C123.994 35.5658 125.623 38.0516 125.623 42.5087C125.623 47.0087 124.037 49.4087 120.994 49.4087Z" fill="#4A4A4A"></path><path d="M143.02 54.0801C145.505 54.0801 147.563 53.0516 149.02 51.0373V54.8944C149.02 58.1087 147.434 59.1801 145.077 59.1801C142.805 59.1801 141.048 58.0658 140.791 56.0087H134.234C135.048 61.623 139.291 64.1944 145.163 64.1944C151.205 64.1944 155.577 60.9801 155.577 54.8087V30.9801H149.02V33.123C147.605 31.2373 145.591 30.2516 143.02 30.2516C137.277 30.2516 133.548 34.5373 133.548 42.2087C133.548 49.5373 137.191 54.0801 143.02 54.0801ZM144.605 48.7658C141.777 48.7658 140.277 46.4087 140.277 42.2087C140.277 37.8801 141.777 35.5658 144.605 35.5658C147.477 35.5658 149.02 37.923 149.02 42.1658C149.02 46.4516 147.52 48.7658 144.605 48.7658Z" fill="#4A4A4A"></path><path d="M169.065 54.723C175.922 54.723 180.422 50.3087 180.422 42.5087C180.422 34.9658 176.051 30.2516 169.065 30.2516C162.208 30.2516 157.751 34.6658 157.751 42.5087C157.751 50.0944 162.08 54.723 169.065 54.723ZM169.065 49.4087C166.108 49.4087 164.48 46.9658 164.48 42.5087C164.48 38.0087 166.065 35.5658 169.065 35.5658C172.065 35.5658 173.694 38.0516 173.694 42.5087C173.694 47.0087 172.108 49.4087 169.065 49.4087Z" fill="#4A4A4A"></path><path d="M182.604 28.6658H189.162V23.1801H182.604V28.6658ZM182.604 54.0373H189.162V30.9801H182.604V54.0373Z" fill="#4A4A4A"></path><path d="M198.84 63.5087V51.723C200.212 53.6944 202.183 54.723 204.626 54.723C210.497 54.723 214.312 50.3087 214.312 42.4658C214.312 34.923 210.583 30.2516 204.626 30.2516C202.226 30.2516 200.255 31.3658 198.84 33.3801V30.9801H192.283V63.5087H198.84ZM203.255 35.5658C206.04 35.5658 207.583 38.0087 207.583 42.4658C207.583 46.9658 206.083 49.4087 203.255 49.4087C200.383 49.4087 198.84 46.923 198.84 42.4658C198.84 38.0087 200.34 35.5658 203.255 35.5658Z" fill="#4A4A4A"></path><path d="M222.186 37.3658C222.186 36.123 223.301 35.2658 225.015 35.2658C227.329 35.2658 228.701 36.2516 229.086 38.6087H235.601C234.958 32.7801 230.758 30.2516 225.229 30.2516C219.058 30.2516 215.929 33.8516 215.929 37.7087C215.929 46.9658 229.901 42.9801 229.901 47.4373C229.901 48.8516 228.743 49.7516 226.429 49.7516C223.986 49.7516 222.229 48.5944 221.929 46.4516H215.372C216.229 52.1516 220.429 54.723 226.258 54.723C232.258 54.723 236.458 51.5944 236.458 47.0516C236.458 37.923 222.186 41.9087 222.186 37.3658Z" fill="#4A4A4A"></path><path d="M252.613 44.223C252.613 47.1801 250.984 49.4087 248.456 49.4087C246.142 49.4087 245.027 47.9516 245.027 44.9944V30.9801H238.47V46.323C238.47 52.0658 241.685 54.723 246.056 54.723C248.842 54.723 251.113 53.523 252.613 50.9516V54.0373H259.17V30.9801H252.613V44.223Z" fill="#4A4A4A"></path><path d="M262.338 54.0373H268.895V40.7944C268.895 37.8373 270.395 35.5658 272.666 35.5658C274.766 35.5658 275.795 37.0658 275.795 39.9801V54.0373H282.309V40.7944C282.309 37.8373 283.852 35.5658 286.124 35.5658C288.224 35.5658 289.209 37.0658 289.209 39.9801V54.0373H295.766V38.6516C295.766 32.9516 292.595 30.2516 288.309 30.2516C285.438 30.2516 282.995 31.4516 281.409 34.0658C280.252 31.4944 277.938 30.2516 275.195 30.2516C272.538 30.2516 270.352 31.4087 268.895 33.8944V30.9801H262.338V54.0373Z" fill="#4A4A4A"></path><path d="M76.1186 63.4521C83.2217 57.1092 87.5775 48.5493 87.5775 39.1304C87.5775 19.5775 68.8068 3.72672 45.652 3.72672C22.4972 3.72672 3.72656 19.5775 3.72656 39.1304C3.72656 58.6834 22.4972 74.5342 45.652 74.5342C52.2209 74.5342 58.4371 73.2585 63.9718 70.9843C70.4734 74.9974 78.439 77.8821 87.2363 77.2737C82.5887 76.0923 78.5911 71.3067 76.1186 63.4521Z" fill="#4A4A4A"></path><path d="M76.3974 39.1304C76.3974 53.5379 62.6323 65.2174 45.6521 65.2174C28.6719 65.2174 14.9067 53.5379 14.9067 39.1304C14.9067 24.723 28.6719 13.0435 45.6521 13.0435C62.6323 13.0435 76.3974 24.723 76.3974 39.1304Z" fill="#4A4A4A"></path><path d="M65.2173 39.1304C65.2173 48.3924 56.4577 55.9006 45.6521 55.9006C34.8465 55.9006 26.0869 48.3924 26.0869 39.1304C26.0869 29.8685 34.8465 22.3603 45.6521 22.3603C56.4577 22.3603 65.2173 29.8685 65.2173 39.1304Z" fill="#4A4A4A"></path></svg>