<svg xmlns="http://www.w3.org/2000/svg" width="300" height="77" viewBox="0 0 300 77" fill="none"><path d="M104.726 48.9014H122.264V44.1257H110.518V21.5039H104.726V48.9014Z" fill="#4A4A4A"></path><path d="M134.147 49.3028C140.381 49.3028 144.261 45.0353 144.261 38.7077C144.261 32.3398 140.381 28.0857 134.147 28.0857C127.913 28.0857 124.034 32.3398 124.034 38.7077C124.034 45.0353 127.913 49.3028 134.147 49.3028ZM134.174 44.8881C131.298 44.8881 129.826 42.2526 129.826 38.6674C129.826 35.0822 131.298 32.4336 134.174 32.4336C136.997 32.4336 138.468 35.0822 138.468 38.6674C138.468 42.2526 136.997 44.8881 134.174 44.8881Z" fill="#4A4A4A"></path><path d="M156.094 57.0351C161.966 57.0351 166.14 54.3594 166.14 49.1021V28.3534H160.481V31.8047H160.267C159.505 30.1324 157.833 28.0857 154.395 28.0857C149.886 28.0857 146.074 31.5908 146.074 38.5873C146.074 45.4232 149.779 48.6071 154.408 48.6071C157.686 48.6071 159.518 46.9616 160.267 45.2627H160.508V49.0218C160.508 51.8445 158.702 52.9415 156.227 52.9415C153.712 52.9415 152.441 51.8445 151.973 50.6003L146.703 51.3095C147.385 54.5467 150.555 57.0351 156.094 57.0351ZM156.214 44.3262C153.418 44.3262 151.893 42.1056 151.893 38.5605C151.893 35.0688 153.391 32.6209 156.214 32.6209C158.983 32.6209 160.535 34.9618 160.535 38.5605C160.535 42.1857 158.956 44.3262 156.214 44.3262Z" fill="#4A4A4A"></path><path d="M178.829 49.3028C185.063 49.3028 188.942 45.0353 188.942 38.7077C188.942 32.3398 185.063 28.0857 178.829 28.0857C172.595 28.0857 168.715 32.3398 168.715 38.7077C168.715 45.0353 172.595 49.3028 178.829 49.3028ZM178.856 44.8881C175.979 44.8881 174.508 42.2526 174.508 38.6674C174.508 35.0822 175.979 32.4336 178.856 32.4336C181.678 32.4336 183.15 35.0822 183.15 38.6674C183.15 42.2526 181.678 44.8881 178.856 44.8881Z" fill="#4A4A4A"></path><path d="M191.518 48.9014H197.217V28.3534H191.518V48.9014ZM194.381 25.7045C196.08 25.7045 197.471 24.407 197.471 22.815C197.471 21.2364 196.08 19.9388 194.381 19.9388C192.695 19.9388 191.304 21.2364 191.304 22.815C191.304 24.407 192.695 25.7045 194.381 25.7045Z" fill="#4A4A4A"></path><path d="M200.653 56.607H206.351V45.6105H206.525C207.314 47.3228 209.039 49.2359 212.357 49.2359C217.04 49.2359 220.692 45.5303 220.692 38.654C220.692 31.5908 216.878 28.0857 212.371 28.0857C208.932 28.0857 207.288 30.1324 206.525 31.8047H206.27V28.3534H200.653V56.607ZM206.23 38.6274C206.23 34.9618 207.782 32.6209 210.551 32.6209C213.375 32.6209 214.873 35.0688 214.873 38.6274C214.873 42.2126 213.348 44.7008 210.551 44.7008C207.809 44.7008 206.23 42.2929 206.23 38.6274Z" fill="#4A4A4A"></path><path d="M240.458 34.2126C239.949 30.4269 236.9 28.0857 231.709 28.0857C226.451 28.0857 222.987 30.5205 222.999 34.4803C222.987 37.5572 224.925 39.5505 228.94 40.3532L232.498 41.0621C234.29 41.4233 235.107 42.0788 235.133 43.1088C235.107 44.3262 233.783 45.1958 231.79 45.1958C229.755 45.1958 228.405 44.3262 228.057 42.6541L222.452 42.9484C222.987 46.8813 226.33 49.3028 231.776 49.3028C237.099 49.3028 240.912 46.587 240.926 42.5337C240.912 39.5639 238.972 37.7846 234.987 36.9685L231.267 36.2193C229.354 35.8046 228.646 35.1491 228.659 34.1591C228.646 32.9286 230.037 32.1259 231.801 32.1259C233.783 32.1259 234.959 33.2094 235.24 34.5338L240.458 34.2126Z" fill="#4A4A4A"></path><path d="M256.561 40.1524C256.575 42.9083 254.688 44.353 252.641 44.353C250.488 44.353 249.097 42.8414 249.083 40.4199V28.3534H243.385V41.4367C243.397 46.2393 246.207 49.169 250.34 49.169C253.431 49.169 255.651 47.577 256.575 45.1689H256.788V48.9014H262.259V28.3534H256.561V40.1524Z" fill="#4A4A4A"></path><path d="M265.688 48.9014H271.388V36.5672C271.388 34.293 272.832 32.7813 274.731 32.7813C276.604 32.7813 277.861 34.0656 277.861 36.0857V48.9014H283.387V36.3531C283.387 34.2261 284.605 32.7813 286.678 32.7813C288.497 32.7813 289.861 33.9184 289.861 36.2061V48.9014H295.547V35.0822C295.547 30.6274 292.899 28.0857 289.072 28.0857C286.062 28.0857 283.721 29.6242 282.878 31.9786H282.665C282.01 29.5974 279.908 28.0857 277.086 28.0857C274.316 28.0857 272.216 29.5573 271.36 31.9786H271.119V28.3534H265.688V48.9014Z" fill="#4A4A4A"></path><path d="M33.7952 3.94737H51.556L44.4268 23.8703C31.8789 26.0753 22.2817 38.2155 22.2817 52.8612C22.2817 59.4681 24.2348 65.5652 27.5307 70.4702H3.94727L25.5071 10.2199C26.8626 6.43151 30.145 3.94737 33.7952 3.94737Z" fill="#4A4A4A"></path><path d="M51.5557 3.94737L46.5453 17.9492L45.0356 3.94737H51.5557Z" fill="#4A4A4A" fill-opacity="0.3"></path><path d="M62.7964 3.94737H45.0356L52.1348 23.7863C64.9324 25.7471 74.7911 38.0171 74.7911 52.8612C74.7911 59.4681 72.8379 65.5652 69.5421 70.4702H92.6443L71.0845 10.2199C69.729 6.43151 66.4466 3.94737 62.7964 3.94737Z" fill="#4A4A4A"></path><path d="M30.6282 68.5528C27.5931 64.2304 25.7832 58.782 25.7832 52.861C25.7832 38.8135 35.9706 27.4259 48.5372 27.4259C61.1041 27.4259 71.2914 38.8135 71.2914 52.861C71.2914 58.782 69.4816 64.2304 66.4464 68.5528C61.4639 64.8434 55.261 62.6438 48.5372 62.6438C41.8137 62.6438 35.6108 64.8434 30.6282 68.5528Z" fill="#4A4A4A"></path></svg>